<svg width="16" height="16" viewBox="0 0 16 16" fill="none" xmlns="http://www.w3.org/2000/svg">
<g clip-path="url(#clip0_1349_2751)">
<path fill-rule="evenodd" clip-rule="evenodd" d="M2.66663 1.99984C2.48981 1.99984 2.32025 2.07008 2.19522 2.1951C2.0702 2.32012 1.99996 2.48969 1.99996 2.6665V8.6665C1.99996 8.84331 2.0702 9.01288 2.19522 9.13791C2.32025 9.26293 2.48982 9.33317 2.66663 9.33317H3.33329C3.70148 9.33317 3.99996 9.63165 3.99996 9.99984C3.99996 10.368 3.70148 10.6665 3.33329 10.6665H2.66663C2.13619 10.6665 1.62748 10.4558 1.25241 10.0807C0.87734 9.70564 0.666626 9.19694 0.666626 8.6665V2.6665C0.666626 2.13607 0.87734 1.62736 1.25241 1.25229C1.62749 0.877217 2.13619 0.666504 2.66663 0.666504H8.66663C9.19706 0.666504 9.70577 0.877218 10.0808 1.25229C10.4559 1.62736 10.6666 2.13607 10.6666 2.6665V3.33317C10.6666 3.70136 10.3681 3.99984 9.99996 3.99984C9.63177 3.99984 9.33329 3.70136 9.33329 3.33317V2.6665C9.33329 2.48969 9.26305 2.32012 9.13803 2.1951C9.01301 2.07007 8.84344 1.99984 8.66663 1.99984H2.66663ZM7.33329 6.6665C6.9651 6.6665 6.66663 6.96498 6.66663 7.33317V13.3332C6.66663 13.7014 6.9651 13.9998 7.33329 13.9998H13.3333C13.7015 13.9998 14 13.7014 14 13.3332V7.33317C14 6.96498 13.7015 6.6665 13.3333 6.6665H7.33329ZM5.33329 7.33317C5.33329 6.2286 6.22872 5.33317 7.33329 5.33317H13.3333C14.4379 5.33317 15.3333 6.2286 15.3333 7.33317V13.3332C15.3333 14.4377 14.4379 15.3332 13.3333 15.3332H7.33329C6.22872 15.3332 5.33329 14.4377 5.33329 13.3332V7.33317Z" fill="#D8922B"/>
</g>
<defs>
<clipPath id="clip0_1349_2751">
<rect width="16" height="16" fill="white"/>
</clipPath>
</defs>
</svg>
