<svg width="73" height="72" viewBox="0 0 73 72" fill="none" xmlns="http://www.w3.org/2000/svg">
<rect x="4.5" y="4" width="64" height="64" rx="32" fill="#E8FEF4"/>
<path fill-rule="evenodd" clip-rule="evenodd" d="M40.7736 26.4025C38.7054 25.481 36.3947 25.2527 34.1861 25.7517C31.9775 26.2507 29.9894 27.4502 28.5183 29.1714C27.0472 30.8926 26.1718 33.0433 26.0228 35.3026C25.8739 37.562 26.4592 39.8089 27.6916 41.7084C28.924 43.6079 30.7373 45.0581 32.8613 45.8428C34.9852 46.6275 37.3059 46.7046 39.4772 46.0626C41.6485 45.4206 43.5542 44.0939 44.9099 42.2804C46.2656 40.4669 46.9988 38.2637 47.0001 35.9995V34.9268C47.0001 34.2825 47.5224 33.7602 48.1668 33.7602C48.8111 33.7602 49.3334 34.2825 49.3334 34.9268V36.0002C49.3318 38.7676 48.4357 41.461 46.7787 43.6775C45.1217 45.894 42.7926 47.5155 40.1388 48.3002C37.485 49.0848 34.6486 48.9906 32.0527 48.0316C29.4567 47.0725 27.2404 45.3 25.7341 42.9784C24.2279 40.6568 23.5125 37.9105 23.6946 35.1491C23.8767 32.3877 24.9465 29.7591 26.7445 27.6554C28.5426 25.5517 30.9725 24.0856 33.6719 23.4757C36.3712 22.8658 39.1954 23.1448 41.7233 24.2712C42.3118 24.5334 42.5763 25.2231 42.3141 25.8117C42.0518 26.4002 41.3621 26.6647 40.7736 26.4025ZM48.9913 25.8415C49.4471 26.2969 49.4475 27.0356 48.9921 27.4914L37.3255 39.1697C37.1067 39.3887 36.8099 39.5118 36.5004 39.5119C36.1909 39.5119 35.894 39.389 35.6751 39.1701L32.1751 35.6701C31.7195 35.2145 31.7195 34.4758 32.1751 34.0202C32.6307 33.5646 33.3694 33.5646 33.825 34.0202L36.4997 36.6949L47.3414 25.8423C47.7968 25.3865 48.5355 25.3861 48.9913 25.8415Z" fill="#19975F"/>
<rect x="4.5" y="4" width="64" height="64" rx="32" stroke="#F7FFFB" stroke-width="8"/>
</svg>
