<svg width="20" height="20" viewBox="0 0 20 20" fill="none" xmlns="http://www.w3.org/2000/svg">
<path fill-rule="evenodd" clip-rule="evenodd" d="M1.25 3.125C1.25 2.0875 2.1 1.25 3.125 1.25H16.875C17.9125 1.25 18.75 2.1 18.75 3.125V16.875C18.75 17.9125 17.9 18.75 16.875 18.75H3.125C2.0875 18.75 1.25 17.9 1.25 16.875V3.125ZM3.75 3.125C3.75 3.4625 4.025 3.75 4.375 3.75H8.125C8.475 3.75 8.75 3.475 8.75 3.125C8.75 2.7875 8.475 2.5 8.125 2.5H4.375C4.025 2.5 3.75 2.775 3.75 3.125ZM11.25 3.125C11.25 3.4625 11.525 3.75 11.875 3.75H15.625C15.975 3.75 16.25 3.475 16.25 3.125C16.25 2.7875 15.975 2.5 15.625 2.5H11.875C11.525 2.5 11.25 2.775 11.25 3.125ZM6.5 14.4375C5.8375 14.4375 5.4125 14.0625 5.4125 13.4625V13.3375C5.4125 13.2125 5.3125 13.0875 5.1625 13.0875H4C3.875 13.0875 3.75 13.2125 3.75 13.3375V13.4625C3.75 14.9 4.975 16.0375 6.5 16.0375C8 16.0375 9.2125 14.9125 9.2125 13.4625C9.2125 12.8125 8.925 12.1375 8.4375 11.7625C8.375 11.7125 8.375 11.6375 8.4375 11.5625C8.8125 11.1875 9.0875 10.6125 9.0875 10.025C9.0875 8.65 7.925 7.5625 6.4875 7.5625C5.0375 7.5625 3.8625 8.6625 3.8625 10.0375V10.225C3.8625 10.35 3.9625 10.475 4.0875 10.475H5.275C5.4 10.475 5.525 10.35 5.525 10.225V10C5.525 9.475 5.925 9.125 6.475 9.125C7.025 9.125 7.4125 9.475 7.4125 10C7.4125 10.55 7.0375 10.9 6.4625 10.9H6.3C6.175 10.9 6.05 11.025 6.05 11.15V12.25C6.05 12.375 6.175 12.475 6.3 12.475H6.45C7.075 12.475 7.5 12.85 7.5 13.475C7.5 14.0625 7.075 14.4375 6.4375 14.4375H6.5ZM13.375 16C13.375 16.125 13.5 16.25 13.65 16.25H14.9375C15.0625 16.25 15.1875 16.125 15.1875 16V7.75C15.1875 7.625 15.0625 7.5 14.9375 7.5H13.5C13.1625 7.5 12.95 7.675 12.8375 7.8L11.775 9C11.5875 9.1875 11.5625 9.35 11.5625 9.55V10.75C11.5625 11 11.85 11.1 12 10.95L13.125 9.9C13.2125 9.825 13.375 9.8375 13.375 10V16Z"/>
</svg>
