<svg width="73" height="72" viewBox="0 0 73 72" fill="none" xmlns="http://www.w3.org/2000/svg">
<rect x="8.5" y="8" width="56" height="56" rx="28" fill="#FFF4E6"/>
<path d="M36.3839 37.0468L41.1964 40.6562C41.5509 40.9221 42.0534 40.8503 42.3193 40.4958C42.5852 40.1412 42.5134 39.6387 42.1589 39.3728L37.7033 36.0001V29.1823C37.7033 28.7392 37.3444 28.3802 36.9012 28.3802C36.4581 28.3802 36.0991 28.7392 36.0991 29.1823V36.4011C36.0991 36.6674 36.2106 36.9072 36.3839 37.0468Z" fill="#DC8108" stroke="#DC8108" stroke-width="0.5"/>
<path d="M37.3022 23.9688C31.4313 23.9688 26.4179 28.2062 25.4393 33.9949L25.1345 33.5417C24.8863 33.1739 24.3874 33.0769 24.0196 33.3251C23.6519 33.5734 23.5548 34.0723 23.8031 34.44L25.4072 36.8463C25.5392 37.0468 25.7541 37.1779 25.9928 37.2032H26.073C26.2855 37.2024 26.4889 37.1174 26.6384 36.9666L28.6437 34.9614C28.9569 34.6482 28.9569 34.1396 28.6437 33.8264C28.3304 33.5132 27.8219 33.5132 27.5087 33.8264L27.0114 34.3277C27.935 28.6433 33.2917 24.7845 38.9757 25.7081C44.6597 26.6317 48.5193 31.988 47.5957 37.6724C46.7756 42.7199 42.4159 46.428 37.3022 46.4272C34.077 46.4857 31.0267 44.9642 29.1329 42.3526C28.8759 41.9917 28.375 41.907 28.014 42.1641C27.6531 42.4212 27.5685 42.9221 27.8255 43.283C30.0184 46.3197 33.5572 48.0927 37.3022 48.0314C43.9471 48.0314 49.3335 42.645 49.3335 36.0001C49.3335 29.3552 43.9471 23.9688 37.3022 23.9688Z" fill="#DC8108" stroke="#DC8108" stroke-width="0.5"/>
<rect x="4.5" y="4" width="64" height="64" rx="32" stroke="#FFF4E6" stroke-opacity="0.5" stroke-width="8"/>
</svg>
