<svg width="20" height="20" viewBox="0 0 20 20" fill="none" xmlns="http://www.w3.org/2000/svg">
<path fill-rule="evenodd" clip-rule="evenodd" d="M16.6537 15.5463C16.6625 15.47 16.6663 15.3925 16.6663 15.3125C16.6663 13.335 16.1388 11.8687 15.1825 10.855C15.595 10.645 16.085 10.5212 16.6663 10.5212C19.1663 10.5212 20 12.8125 20 14.375C20 15.1587 18.325 15.55 16.6537 15.5463ZM4.81625 10.855C3.86125 11.8675 3.33375 13.335 3.33375 15.3125C3.33375 15.3925 3.3375 15.47 3.345 15.5463C1.67375 15.55 0 15.1587 0 14.375C0 12.8125 0.83375 10.5212 3.33375 10.5212C3.915 10.5212 4.405 10.645 4.8175 10.855H4.81625ZM10 8.4375C9.1712 8.4375 8.37634 8.10826 7.79029 7.52221C7.20424 6.93616 6.875 6.1413 6.875 5.3125C6.875 4.4837 7.20424 3.68884 7.79029 3.10279C8.37634 2.51674 9.1712 2.1875 10 2.1875C10.8288 2.1875 11.6237 2.51674 12.2097 3.10279C12.7958 3.68884 13.125 4.4837 13.125 5.3125C13.125 6.1413 12.7958 6.93616 12.2097 7.52221C11.6237 8.10826 10.8288 8.4375 10 8.4375ZM16.6663 9.6875C16.0032 9.6875 15.3673 9.42411 14.8985 8.95527C14.4296 8.48643 14.1663 7.85054 14.1663 7.1875C14.1663 6.52446 14.4296 5.88857 14.8985 5.41973C15.3673 4.95089 16.0032 4.6875 16.6663 4.6875C17.3293 4.6875 17.9652 4.95089 18.434 5.41973C18.9029 5.88857 19.1663 6.52446 19.1663 7.1875C19.1663 7.85054 18.9029 8.48643 18.434 8.95527C17.9652 9.42411 17.3293 9.6875 16.6663 9.6875ZM3.33375 9.6875C2.67071 9.6875 2.03482 9.42411 1.56598 8.95527C1.09714 8.48643 0.83375 7.85054 0.83375 7.1875C0.83375 6.52446 1.09714 5.88857 1.56598 5.41973C2.03482 4.95089 2.67071 4.6875 3.33375 4.6875C3.99679 4.6875 4.63268 4.95089 5.10152 5.41973C5.57036 5.88857 5.83375 6.52446 5.83375 7.1875C5.83375 7.85054 5.57036 8.48643 5.10152 8.95527C4.63268 9.42411 3.99679 9.6875 3.33375 9.6875ZM10 9.6875C13.3337 9.6875 15.625 10.9375 15.625 15.3125C15.625 16.4937 14.375 17.8125 10 17.8125C5.625 17.8125 4.375 16.6313 4.375 15.3125C4.375 10.9375 6.66625 9.6875 10 9.6875Z"/>
</svg>
