<svg width="16" height="16" viewBox="0 0 16 16" fill="none" xmlns="http://www.w3.org/2000/svg">
<path d="M6 0H3.33333C2.44928 0 1.60143 0.351189 0.976311 0.976311C0.351189 1.60143 0 2.44928 0 3.33333L0 12.6667C0 13.1044 0.0862192 13.5379 0.253735 13.9423C0.421251 14.3467 0.666782 14.7142 0.976311 15.0237C1.60143 15.6488 2.44928 16 3.33333 16H9.33333V3.33333C9.33333 2.89559 9.24712 2.46214 9.0796 2.05772C8.91208 1.6533 8.66655 1.28584 8.35702 0.976311C8.04749 0.666782 7.68003 0.421251 7.27561 0.253735C6.87119 0.0862192 6.43774 0 6 0V0ZM3.33333 12.6667H2.66667C2.48986 12.6667 2.32029 12.5964 2.19526 12.4714C2.07024 12.3464 2 12.1768 2 12C2 11.8232 2.07024 11.6536 2.19526 11.5286C2.32029 11.4036 2.48986 11.3333 2.66667 11.3333H3.33333C3.51014 11.3333 3.67971 11.4036 3.80474 11.5286C3.92976 11.6536 4 11.8232 4 12C4 12.1768 3.92976 12.3464 3.80474 12.4714C3.67971 12.5964 3.51014 12.6667 3.33333 12.6667ZM3.33333 10H2.66667C2.48986 10 2.32029 9.92976 2.19526 9.80474C2.07024 9.67971 2 9.51014 2 9.33333C2 9.15652 2.07024 8.98695 2.19526 8.86193C2.32029 8.73691 2.48986 8.66667 2.66667 8.66667H3.33333C3.51014 8.66667 3.67971 8.73691 3.80474 8.86193C3.92976 8.98695 4 9.15652 4 9.33333C4 9.51014 3.92976 9.67971 3.80474 9.80474C3.67971 9.92976 3.51014 10 3.33333 10ZM3.33333 7.33333H2.66667C2.48986 7.33333 2.32029 7.2631 2.19526 7.13807C2.07024 7.01305 2 6.84348 2 6.66667C2 6.48986 2.07024 6.32029 2.19526 6.19526C2.32029 6.07024 2.48986 6 2.66667 6H3.33333C3.51014 6 3.67971 6.07024 3.80474 6.19526C3.92976 6.32029 4 6.48986 4 6.66667C4 6.84348 3.92976 7.01305 3.80474 7.13807C3.67971 7.2631 3.51014 7.33333 3.33333 7.33333ZM3.33333 4.66667H2.66667C2.48986 4.66667 2.32029 4.59643 2.19526 4.4714C2.07024 4.34638 2 4.17681 2 4C2 3.82319 2.07024 3.65362 2.19526 3.5286C2.32029 3.40357 2.48986 3.33333 2.66667 3.33333H3.33333C3.51014 3.33333 3.67971 3.40357 3.80474 3.5286C3.92976 3.65362 4 3.82319 4 4C4 4.17681 3.92976 4.34638 3.80474 4.4714C3.67971 4.59643 3.51014 4.66667 3.33333 4.66667ZM6.66667 12.6667H6C5.82319 12.6667 5.65362 12.5964 5.5286 12.4714C5.40357 12.3464 5.33333 12.1768 5.33333 12C5.33333 11.8232 5.40357 11.6536 5.5286 11.5286C5.65362 11.4036 5.82319 11.3333 6 11.3333H6.66667C6.84348 11.3333 7.01305 11.4036 7.13807 11.5286C7.2631 11.6536 7.33333 11.8232 7.33333 12C7.33333 12.1768 7.2631 12.3464 7.13807 12.4714C7.01305 12.5964 6.84348 12.6667 6.66667 12.6667ZM6.66667 10H6C5.82319 10 5.65362 9.92976 5.5286 9.80474C5.40357 9.67971 5.33333 9.51014 5.33333 9.33333C5.33333 9.15652 5.40357 8.98695 5.5286 8.86193C5.65362 8.73691 5.82319 8.66667 6 8.66667H6.66667C6.84348 8.66667 7.01305 8.73691 7.13807 8.86193C7.2631 8.98695 7.33333 9.15652 7.33333 9.33333C7.33333 9.51014 7.2631 9.67971 7.13807 9.80474C7.01305 9.92976 6.84348 10 6.66667 10ZM6.66667 7.33333H6C5.82319 7.33333 5.65362 7.2631 5.5286 7.13807C5.40357 7.01305 5.33333 6.84348 5.33333 6.66667C5.33333 6.48986 5.40357 6.32029 5.5286 6.19526C5.65362 6.07024 5.82319 6 6 6H6.66667C6.84348 6 7.01305 6.07024 7.13807 6.19526C7.2631 6.32029 7.33333 6.48986 7.33333 6.66667C7.33333 6.84348 7.2631 7.01305 7.13807 7.13807C7.01305 7.2631 6.84348 7.33333 6.66667 7.33333ZM6.66667 4.66667H6C5.82319 4.66667 5.65362 4.59643 5.5286 4.4714C5.40357 4.34638 5.33333 4.17681 5.33333 4C5.33333 3.82319 5.40357 3.65362 5.5286 3.5286C5.65362 3.40357 5.82319 3.33333 6 3.33333H6.66667C6.84348 3.33333 7.01305 3.40357 7.13807 3.5286C7.2631 3.65362 7.33333 3.82319 7.33333 4C7.33333 4.17681 7.2631 4.34638 7.13807 4.4714C7.01305 4.59643 6.84348 4.66667 6.66667 4.66667ZM12.6667 3.33333H10.6667V16H12.6667C13.5504 15.9989 14.3976 15.6474 15.0225 15.0225C15.6474 14.3976 15.9989 13.5504 16 12.6667V6.66667C15.9989 5.78294 15.6474 4.93571 15.0225 4.31081C14.3976 3.68592 13.5504 3.33439 12.6667 3.33333ZM13.3333 12.6667C13.2015 12.6667 13.0726 12.6276 12.963 12.5543C12.8533 12.4811 12.7679 12.3769 12.7174 12.2551C12.667 12.1333 12.6538 11.9993 12.6795 11.8699C12.7052 11.7406 12.7687 11.6218 12.8619 11.5286C12.9552 11.4354 13.074 11.3719 13.2033 11.3461C13.3326 11.3204 13.4666 11.3336 13.5885 11.3841C13.7103 11.4345 13.8144 11.52 13.8876 11.6296C13.9609 11.7393 14 11.8681 14 12C14 12.1768 13.9298 12.3464 13.8047 12.4714C13.6797 12.5964 13.5101 12.6667 13.3333 12.6667ZM13.3333 10C13.2015 10 13.0726 9.9609 12.963 9.88765C12.8533 9.81439 12.7679 9.71027 12.7174 9.58846C12.667 9.46664 12.6538 9.33259 12.6795 9.20327C12.7052 9.07395 12.7687 8.95516 12.8619 8.86193C12.9552 8.76869 13.074 8.7052 13.2033 8.67948C13.3326 8.65375 13.4666 8.66695 13.5885 8.71741C13.7103 8.76787 13.8144 8.85332 13.8876 8.96295C13.9609 9.07259 14 9.20148 14 9.33333C14 9.51014 13.9298 9.67971 13.8047 9.80474C13.6797 9.92976 13.5101 10 13.3333 10ZM13.3333 7.33333C13.2015 7.33333 13.0726 7.29423 12.963 7.22098C12.8533 7.14773 12.7679 7.04361 12.7174 6.92179C12.667 6.79997 12.6538 6.66593 12.6795 6.53661C12.7052 6.40729 12.7687 6.2885 12.8619 6.19526C12.9552 6.10203 13.074 6.03853 13.2033 6.01281C13.3326 5.98709 13.4666 6.00029 13.5885 6.05075C13.7103 6.10121 13.8144 6.18665 13.8876 6.29629C13.9609 6.40592 14 6.53481 14 6.66667C14 6.84348 13.9298 7.01305 13.8047 7.13807C13.6797 7.2631 13.5101 7.33333 13.3333 7.33333Z" fill="#15634A"/>
</svg>
