<svg width="20" height="20" viewBox="0 0 20 20" fill="none" xmlns="http://www.w3.org/2000/svg">
<path fill-rule="evenodd" clip-rule="evenodd" d="M6.78815 13.2098L2.9344 11.9035C2.76291 11.8451 2.61399 11.7346 2.50854 11.5873C2.40308 11.44 2.34637 11.2634 2.34637 11.0823C2.34637 10.9011 2.40308 10.7245 2.50854 10.5772C2.61399 10.4299 2.76291 10.3194 2.9344 10.261L6.78815 8.956C6.91448 8.91326 7.02926 8.84197 7.12356 8.74767C7.21787 8.65336 7.28916 8.53859 7.3319 8.41225L8.6369 4.55725C8.69498 4.38532 8.80552 4.23593 8.95295 4.13011C9.10039 4.0243 9.2773 3.96738 9.45877 3.96738C9.64025 3.96738 9.81716 4.0243 9.9646 4.13011C10.112 4.23593 10.2226 4.38532 10.2806 4.55725L11.5856 8.41225C11.6731 8.6685 11.8731 8.86975 12.1294 8.956L15.9831 10.261C16.1546 10.3194 16.3036 10.4299 16.409 10.5772C16.5145 10.7245 16.5712 10.9011 16.5712 11.0823C16.5712 11.2634 16.5145 11.44 16.409 11.5873C16.3036 11.7346 16.1546 11.8451 15.9831 11.9035L12.1294 13.2098C12.0032 13.2524 11.8885 13.3235 11.7942 13.4175C11.6999 13.5116 11.6286 13.6262 11.5856 13.7523L10.2806 17.6073C10.2226 17.7792 10.112 17.9286 9.9646 18.0344C9.81716 18.1402 9.64025 18.1971 9.45877 18.1971C9.2773 18.1971 9.10039 18.1402 8.95295 18.0344C8.80552 17.9286 8.69498 17.7792 8.6369 17.6073L7.3319 13.7523C7.289 13.6262 7.21763 13.5116 7.12334 13.4175C7.02904 13.3235 6.91435 13.2524 6.78815 13.2098ZM14.5856 5.26475L12.9481 4.711C12.8658 4.68353 12.7941 4.63085 12.7434 4.5604C12.6926 4.48996 12.6653 4.40533 12.6653 4.3185C12.6653 4.23167 12.6926 4.14704 12.7434 4.0766C12.7941 4.00616 12.8658 3.95347 12.9481 3.926L14.5856 3.37225C14.6461 3.35189 14.701 3.31782 14.7461 3.27272C14.7912 3.22762 14.8253 3.1727 14.8456 3.11225L15.3994 1.47475C15.4269 1.39238 15.4796 1.32074 15.55 1.26998C15.6204 1.21921 15.7051 1.19189 15.7919 1.19189C15.8787 1.19189 15.9634 1.21921 16.0338 1.26998C16.1042 1.32074 16.1569 1.39238 16.1844 1.47475L16.7381 3.11225C16.7794 3.23475 16.8756 3.331 16.9981 3.37225L18.6356 3.926C18.718 3.95347 18.7897 4.00616 18.8404 4.0766C18.8912 4.14704 18.9185 4.23167 18.9185 4.3185C18.9185 4.40533 18.8912 4.48996 18.8404 4.5604C18.7897 4.63085 18.718 4.68353 18.6356 4.711L16.9981 5.26475C16.9377 5.28512 16.8828 5.31918 16.8377 5.36428C16.7926 5.40939 16.7585 5.46431 16.7381 5.52475L16.1844 7.16225C16.1569 7.24462 16.1042 7.31626 16.0338 7.36703C15.9634 7.41779 15.8787 7.44511 15.7919 7.44511C15.7051 7.44511 15.6204 7.41779 15.55 7.36703C15.4796 7.31626 15.4269 7.24462 15.3994 7.16225L14.8456 5.52475C14.8253 5.46431 14.7912 5.40939 14.7461 5.36428C14.701 5.31918 14.6461 5.28512 14.5856 5.26475ZM2.1994 17.4185L1.3394 17.1273C1.2641 17.1018 1.19867 17.0534 1.15232 16.9888C1.10598 16.9242 1.08105 16.8467 1.08105 16.7673C1.08105 16.6878 1.10598 16.6103 1.15232 16.5457C1.19867 16.4811 1.2641 16.4327 1.3394 16.4073L2.1994 16.116C2.26238 16.0946 2.31961 16.059 2.36664 16.012C2.41367 15.965 2.44926 15.9077 2.47065 15.8448L2.7619 14.9848C2.78735 14.9094 2.83577 14.844 2.90035 14.7977C2.96493 14.7513 3.04241 14.7264 3.1219 14.7264C3.20139 14.7264 3.27887 14.7513 3.34345 14.7977C3.40803 14.844 3.45645 14.9094 3.4819 14.9848L3.77315 15.8448C3.79466 15.9079 3.83044 15.9652 3.8777 16.0122C3.92496 16.0593 3.98243 16.0948 4.04565 16.116L4.90565 16.4073C4.98095 16.4327 5.04638 16.4811 5.09272 16.5457C5.13907 16.6103 5.16399 16.6878 5.16399 16.7673C5.16399 16.8467 5.13907 16.9242 5.09272 16.9888C5.04638 17.0534 4.98095 17.1018 4.90565 17.1273L4.04565 17.4185C3.98243 17.4397 3.92496 17.4752 3.8777 17.5223C3.83044 17.5693 3.79466 17.6266 3.77315 17.6898L3.4819 18.5498C3.45645 18.6251 3.40803 18.6905 3.34345 18.7368C3.27887 18.7832 3.20139 18.8081 3.1219 18.8081C3.04241 18.8081 2.96493 18.7832 2.90035 18.7368C2.83577 18.6905 2.78735 18.6251 2.7619 18.5498L2.47065 17.6898C2.44926 17.6268 2.41367 17.5695 2.36664 17.5225C2.31961 17.4755 2.26238 17.4399 2.1994 17.4185Z"/>
</svg>
