<svg width="32" height="26" viewBox="0 0 32 26" fill="none" xmlns="http://www.w3.org/2000/svg">
<path d="M21.3333 18.3334L15.9999 13M15.9999 13L10.6666 18.3334M15.9999 13V25M27.1866 21.52C28.4871 20.811 29.5144 19.6892 30.1064 18.3315C30.6985 16.9738 30.8216 15.4577 30.4562 14.0223C30.0909 12.5869 29.2579 11.314 28.0888 10.4046C26.9198 9.49519 25.4811 9.001 23.9999 9.00002H22.3199C21.9164 7.43901 21.1642 5.9898 20.1199 4.76134C19.0756 3.53289 17.7664 2.55715 16.2907 1.9075C14.8151 1.25784 13.2113 0.951164 11.6001 1.01053C9.98886 1.06989 8.41204 1.49375 6.98818 2.25024C5.56433 3.00673 4.3305 4.07616 3.37944 5.37813C2.42839 6.6801 1.78487 8.18073 1.49725 9.76721C1.20964 11.3537 1.28542 12.9847 1.7189 14.5377C2.15238 16.0907 2.93227 17.5252 3.99995 18.7334" stroke="#595959" stroke-width="1.66667" stroke-linecap="round" stroke-linejoin="round"/>
</svg>
