<svg width="20" height="20" viewBox="0 0 20 20" fill="none" xmlns="http://www.w3.org/2000/svg">
<path fill-rule="evenodd" clip-rule="evenodd" d="M0.0787556 10.6275L3.59875 1.8275C3.72375 1.51625 4.11126 1.25 4.46 1.25H4.79375C5.14625 1.25 5.52625 1.50875 5.655 1.82875L9.17375 10.6275C9.29875 10.94 9.12375 11.205 8.775 11.205H7.725C7.6355 11.2024 7.5488 11.1732 7.47599 11.1211C7.40317 11.069 7.34756 10.9964 7.31625 10.9125L6.81875 9.41875C6.75696 9.24777 6.64558 9.09911 6.49883 8.99178C6.35209 8.88445 6.17667 8.82333 5.995 8.81625H3.2575C2.92251 8.81625 2.54501 9.08625 2.43501 9.41875L1.93626 10.9125C1.90439 10.996 1.84863 11.0683 1.77593 11.1203C1.70324 11.1723 1.61684 11.2018 1.52751 11.205H0.477506C0.125006 11.205 -0.0474943 10.9462 0.0787556 10.6275ZM3.26875 6.63625C3.13876 6.96125 3.30626 7.22375 3.64751 7.22375H5.605C5.945 7.22375 6.115 6.96125 5.985 6.63625L5.08625 4.3925C4.8325 3.75625 4.4175 3.76125 4.165 4.3925L3.26875 6.6375V6.63625ZM10 10C10 9.31 10.5663 8.75 11.2463 8.75H18.7538C19.4413 8.75 20 9.305 20 10C20 10.69 19.4338 11.25 18.7538 11.25H11.2463C11.0822 11.2502 10.9198 11.2179 10.7683 11.1551C10.6167 11.0923 10.4791 11.0002 10.3633 10.884C10.2475 10.7679 10.1558 10.63 10.0935 10.4783C10.0311 10.3266 9.99934 10.164 10 10ZM10 6.25C10 5.56 10.555 5 11.25 5H15C15.69 5 16.25 5.555 16.25 6.25C16.25 6.94 15.695 7.5 15 7.5H11.25C10.56 7.5 10 6.945 10 6.25ZM5.65948e-06 13.75C5.65948e-06 13.06 0.561255 12.5 1.25876 12.5H17.4913C18.1863 12.5 18.75 13.055 18.75 13.75C18.75 14.44 18.1888 15 17.4913 15H1.25876C1.09391 15.001 0.930502 14.9694 0.777908 14.907C0.625315 14.8447 0.486547 14.7528 0.369579 14.6366C0.252611 14.5205 0.159747 14.3823 0.0963236 14.2302C0.0329002 14.078 0.000167377 13.9148 5.65948e-06 13.75ZM5.65948e-06 17.5C5.49383e-06 17.1687 0.13153 16.8509 0.36568 16.6166C0.59983 16.3822 0.917452 16.2503 1.24876 16.25H15C15.3315 16.25 15.6495 16.3817 15.8839 16.6161C16.1183 16.8505 16.25 17.1685 16.25 17.5C16.25 17.8315 16.1183 18.1495 15.8839 18.3839C15.6495 18.6183 15.3315 18.75 15 18.75H1.25001C1.08571 18.7505 0.922947 18.7185 0.771066 18.6559C0.619186 18.5932 0.48119 18.5012 0.365018 18.385C0.248846 18.2688 0.156791 18.1308 0.0941478 17.9789C0.0315048 17.8271 -0.000489445 17.6643 5.65948e-06 17.5Z" fill="#3D3E3E"/>
</svg>
