<svg width="120" height="120" viewBox="0 0 102 48" fill="none" xmlns="http://www.w3.org/2000/svg">
<path fill-rule="evenodd" clip-rule="evenodd" d="M51.1536 47.9006C49.931 47.9006 48.6927 47.5892 47.5585 46.9352C44.1143 44.9475 42.9333 40.5516 44.9208 37.1158L64.3217 3.59391C66.3091 0.158156 70.721 -1.01996 74.1652 0.962603C77.6094 2.94517 78.7904 7.34625 76.803 10.782L57.4021 44.3039C56.065 46.6134 53.6405 47.9006 51.1536 47.9006ZM75.3857 47.9006C74.163 47.9006 72.9248 47.5892 71.7906 46.9352C68.3464 44.9475 67.1654 40.5516 69.1528 37.1158L88.5537 3.59391C90.5412 0.158156 94.9531 -1.01996 98.3973 0.962603C101.841 2.94517 103.022 7.34625 101.035 10.782L81.6341 44.3039C80.297 46.6134 77.8726 47.9006 75.3857 47.9006ZM26.6137 47.9006C24.1218 47.9006 21.7027 46.6134 20.3656 44.3039L0.966039 10.782C-1.02126 7.34106 0.154466 2.94517 3.60363 0.962603C7.0528 -1.01996 11.4592 0.158156 13.4465 3.59391L26.7676 26.6124L40.0896 3.59391C42.0771 0.158156 46.489 -1.01996 49.9332 0.962603C53.3774 2.94517 54.5584 7.34625 52.5709 10.782L33.17 44.3039C31.8329 46.6134 29.4085 47.9006 26.9216 47.9006C26.8703 47.9006 26.819 47.9 26.7676 47.8989C26.7163 47.9 26.665 47.9006 26.6137 47.9006Z" fill="#FF6B00"/>
</svg>
