<svg width="64" height="34" viewBox="0 0 64 34" fill="none" xmlns="http://www.w3.org/2000/svg">
<path d="M14.5826 6.48666C12.8954 3.18993 10.946 1.78477 7.50315 0.872763C6.98255 0.727518 6.47334 0.639696 5.99834 0.568762C2.68473 0.0958711 0.712519 1.18352 0.712519 1.18352L0.347717 1.5821C0.347717 1.5821 6.12754 1.88948 8.30115 8.08435C9.27776 10.8609 10.129 13.9313 10.7408 16.4647H10.737C11.7174 20.3018 12.7016 24.2403 14.3394 27.4594L14.3698 27.5168C16.0532 30.8101 18.0026 32.2187 21.4492 33.1307C21.9698 33.2759 22.479 33.3638 22.954 33.4347C26.2638 33.911 28.236 32.8233 28.236 32.8233L28.6008 32.4247C28.6008 32.4247 22.821 32.1173 20.6474 25.9225C19.6708 23.1459 18.8196 20.0755 18.2078 17.5422H18.2116C17.2312 13.705 16.247 9.76649 14.6092 6.54745L14.5826 6.48666Z" fill="#B98868"/>
<path d="M49.6301 6.48668C47.9467 3.19334 45.9973 1.7848 42.5507 0.872792C42.0301 0.727547 41.5209 0.639725 41.0459 0.568791C37.7361 0.0925224 35.7638 1.18017 35.7638 1.18017L35.399 1.57875C35.399 1.57875 41.1789 1.88613 43.3525 8.081C44.3291 10.8575 45.1803 13.928 45.7921 16.4613H45.7883C46.7687 20.2985 47.7529 24.237 49.3907 27.456L49.4211 27.5134C51.1045 30.8068 53.0539 32.2153 56.5005 33.1273C57.0211 33.2726 57.5303 33.3604 58.0053 33.4313C61.3152 33.9076 63.2874 32.82 63.2874 32.82L63.6522 32.4214C63.6522 32.4214 57.8723 32.114 55.6987 25.9191C54.7221 23.1426 53.8709 20.0722 53.2591 17.5388H53.2629C52.2825 13.7016 51.2983 9.76314 49.6605 6.54411L49.6301 6.48668Z" fill="#B98868"/>
<path d="M32.1045 6.48668C30.4211 3.18996 28.4716 1.7848 25.0288 0.872792C24.5082 0.727547 23.999 0.639725 23.524 0.568791C20.2142 0.0925224 18.242 1.18017 18.242 1.18017L17.8772 1.57875C17.8772 1.57875 23.657 1.88613 25.8306 8.081C26.8072 10.8575 27.6584 13.928 28.2702 16.4613H28.2664C29.2468 20.2985 30.2311 24.237 31.8689 27.456L31.8993 27.5134C33.5827 30.8068 35.5321 32.2153 38.9787 33.1273C39.4993 33.2726 40.0085 33.3604 40.4835 33.4313C43.7933 33.9076 45.7655 32.82 45.7655 32.82L46.1303 32.4214C46.1303 32.4214 40.3505 32.114 38.1769 25.9191C37.2003 23.1426 36.3491 20.0722 35.7373 17.5388H35.7411C34.7607 13.7016 33.7765 9.76314 32.1387 6.54411L32.1045 6.48668Z" fill="#B98868"/>
</svg>
