<?xml version="1.0" encoding="iso-8859-1"?>
<!-- Uploaded to: SVG Repo, www.svgrepo.com, Generator: SVG Repo Mixer Tools -->
<svg height="800px" width="800px" version="1.1" id="Layer_1" xmlns="http://www.w3.org/2000/svg" xmlns:xlink="http://www.w3.org/1999/xlink" 
	 viewBox="0 0 512 512" xml:space="preserve">
<path style="fill:#DC85A6;" d="M256,0c-57.989,0-105.165,47.178-105.165,105.165c0,57.989,47.176,105.165,105.165,105.165
	s105.165-47.176,105.165-105.165C361.165,47.178,313.989,0,256,0z"/>
<path style="fill:#D6E5F6;" d="M256,260.609c-106.273,0-192.733,86.462-192.733,192.733c0,13.885,11.256,25.139,25.139,25.139
	h335.188c13.883,0,25.139-11.254,25.139-25.139C448.733,347.071,362.273,260.609,256,260.609z"/>
<path style="fill:#A4C6EC;" d="M256,260.609v217.872h167.594c13.883,0,25.139-11.254,25.139-25.139
	C448.733,347.071,362.273,260.609,256,260.609z"/>
<path style="fill:#1D3366;" d="M256,260.609c-13.883,0-25.139,11.257-25.139,25.139v201.113C230.861,500.746,242.117,512,256,512
	s25.139-11.254,25.139-25.139V285.748C281.139,271.866,269.883,260.609,256,260.609z"/>
<path style="fill:#CE5C82;" d="M256,0v210.331c57.989,0,105.165-47.176,105.165-105.165C361.165,47.178,313.989,0,256,0z"/>
</svg>