<?xml version="1.0" encoding="iso-8859-1"?>
<!-- Uploaded to: SVG Repo, www.svgrepo.com, Generator: SVG Repo Mixer Tools -->
<svg version="1.1" id="Layer_1" xmlns="http://www.w3.org/2000/svg" xmlns:xlink="http://www.w3.org/1999/xlink" 
	 viewBox="0 0 512 512" xml:space="preserve">
<polyline style="fill:#E0DCCD;" points="320.028,428.296 7.888,428.296 7.888,44.123 504.112,44.123 504.112,428.296 
	464.094,428.296 "/>
<path style="fill:#75C0C7;" d="M392.061,484.322L392.061,484.322c-39.783,0-72.033-32.25-72.033-72.033l0,0
	c0-39.783,32.25-72.033,72.033-72.033l0,0c39.783,0,72.033,32.25,72.033,72.033l0,0
	C464.094,452.072,431.844,484.322,392.061,484.322z"/>
<path style="fill:#589095;" d="M384.058,412.289c0-28.267,16.321-52.662,40.018-64.456c-9.654-4.805-20.499-7.576-32.015-7.576
	c-39.783,0-72.033,32.25-72.033,72.033s32.25,72.033,72.033,72.033c11.516,0,22.361-2.771,32.015-7.576
	C400.379,464.951,384.058,440.556,384.058,412.289z"/>
<polyline style="fill:#A8A59A;" points="88.44,428.296 7.888,428.296 7.888,44.123 135.946,44.123 135.946,428.296 125.619,428.296 
	"/>
<g>
	<rect x="63.914" y="228.208" style="fill:#FFFFFF;" width="48.022" height="40.017"/>
	<rect x="63.914" y="308.243" style="fill:#FFFFFF;" width="48.022" height="40.017"/>
	<rect x="111.932" y="188.191" style="fill:#FFFFFF;" width="48.022" height="40.017"/>
	<rect x="111.932" y="268.225" style="fill:#FFFFFF;" width="48.022" height="40.017"/>
	<rect x="159.953" y="228.208" style="fill:#FFFFFF;" width="48.022" height="40.017"/>
	<rect x="159.953" y="308.243" style="fill:#FFFFFF;" width="48.022" height="40.017"/>
	<rect x="207.973" y="188.191" style="fill:#FFFFFF;" width="48.022" height="40.017"/>
	<rect x="207.973" y="268.225" style="fill:#FFFFFF;" width="48.022" height="40.017"/>
	<rect x="256.004" y="228.208" style="fill:#FFFFFF;" width="48.022" height="40.017"/>
	<rect x="256.004" y="308.243" style="fill:#FFFFFF;" width="48.022" height="40.017"/>
	<rect x="304.025" y="188.191" style="fill:#FFFFFF;" width="48.022" height="40.017"/>
	<rect x="304.025" y="268.225" style="fill:#FFFFFF;" width="48.022" height="40.017"/>
	<rect x="352.045" y="228.208" style="fill:#FFFFFF;" width="48.022" height="40.017"/>
	<rect x="352.045" y="308.243" style="fill:#FFFFFF;" width="48.022" height="40.017"/>
	<rect x="400.066" y="188.191" style="fill:#FFFFFF;" width="48.022" height="40.017"/>
	<rect x="400.066" y="268.225" style="fill:#FFFFFF;" width="48.022" height="40.017"/>
</g>
<rect x="7.888" y="44.123" style="fill:#FCBB3B;" width="496.222" height="64.028"/>
<g>
	<rect x="63.914" y="188.191" style="fill:#4BAF78;" width="48.022" height="40.017"/>
	<rect x="111.932" y="228.208" style="fill:#4BAF78;" width="48.022" height="40.017"/>
	<rect x="63.914" y="268.225" style="fill:#4BAF78;" width="48.022" height="40.017"/>
	<rect x="111.932" y="308.243" style="fill:#4BAF78;" width="48.022" height="40.017"/>
	<rect x="159.953" y="188.191" style="fill:#4BAF78;" width="48.022" height="40.017"/>
	<rect x="207.973" y="228.208" style="fill:#4BAF78;" width="48.022" height="40.017"/>
	<rect x="159.953" y="268.225" style="fill:#4BAF78;" width="48.022" height="40.017"/>
	<rect x="207.973" y="308.243" style="fill:#4BAF78;" width="48.022" height="40.017"/>
	<rect x="256.004" y="188.191" style="fill:#4BAF78;" width="48.022" height="40.017"/>
	<rect x="304.025" y="228.208" style="fill:#4BAF78;" width="48.022" height="40.017"/>
	<rect x="256.004" y="268.225" style="fill:#4BAF78;" width="48.022" height="40.017"/>
	<rect x="304.025" y="308.243" style="fill:#4BAF78;" width="48.022" height="40.017"/>
	<rect x="352.045" y="188.191" style="fill:#4BAF78;" width="48.022" height="40.017"/>
	<rect x="400.066" y="228.208" style="fill:#4BAF78;" width="48.022" height="40.017"/>
	<rect x="352.045" y="268.225" style="fill:#4BAF78;" width="48.022" height="40.017"/>
	<rect x="400.066" y="308.243" style="fill:#4BAF78;" width="48.022" height="40.017"/>
</g>
<rect x="7.888" y="44.123" style="fill:#BD8C2C;" width="136.058" height="64.028"/>
<polygon style="fill:#FFFFFF;" points="384.058,447.455 354.469,417.867 365.625,406.712 384.058,425.145 426.501,382.701 
	437.658,393.856 "/>
<rect x="71.957" y="100.774" width="368.094" height="15.775"/>
<rect x="56.182" y="140.739" width="191.409" height="15.775"/>
<path d="M512,36.235h-56.177V19.791h-15.775v16.443h-15.775V19.791h-15.775v16.443h-16.827V19.791h-15.775v16.443h-15.775V19.791
	h-15.775v16.443h-16.827V19.791H311.74v16.443h-15.775V19.791h-15.775v16.443h-16.827V19.791h-15.775v16.443h-15.775V19.791h-15.775
	v16.443H200.26V19.791h-15.775v16.443h-16.827V19.791h-15.775v16.443h-15.775V19.791h-15.775v16.443h-16.827V19.791H87.728v16.443
	H71.953V19.791H56.177v16.443H0v399.949h315.793c10.183,32.432,40.521,56.025,76.268,56.025c35.748,0,66.087-23.594,76.269-56.025
	H512V36.235z M392.061,476.434c-35.37,0-64.144-28.774-64.144-64.144s28.774-64.145,64.144-64.145s64.145,28.775,64.145,64.145
	S427.431,476.434,392.061,476.434z M407.444,333.869V316.37H440.2v24.002h-13.304C420.802,337.409,414.277,335.207,407.444,333.869z
	 M440.2,300.595h-32.755v-24.189H440.2V300.595z M440.2,260.63h-32.755v-24.189H440.2V260.63z M391.669,260.63h-31.551v-24.189
	h31.551V260.63z M344.343,260.63H311.74v-24.189h32.603V260.63z M295.964,260.63h-32.603v-24.189h32.603V260.63z M247.586,260.63
	h-31.551v-24.189h31.551V260.63z M200.26,260.63h-32.603v-24.189h32.603V260.63z M151.882,260.63h-31.551v-24.189h31.551V260.63z
	 M151.882,276.406v24.189h-31.551v-24.189H151.882z M167.657,276.406h32.603v24.189h-32.603V276.406z M216.035,276.406h31.551
	v24.189h-31.551V276.406z M263.362,276.406h32.603v24.189h-32.603L263.362,276.406L263.362,276.406z M311.74,276.406h32.603v24.189
	H311.74V276.406z M360.118,276.406h31.551v24.189h-31.551V276.406z M391.669,316.37v16.008c-11.209,0.055-21.874,2.435-31.551,6.672
	v-22.68H391.669z M440.2,220.666h-32.755v-24.591H440.2V220.666z M391.669,220.666h-31.551v-24.591h31.551V220.666z
	 M344.343,220.666H311.74v-24.591h32.603V220.666z M295.964,220.666h-32.603v-24.591h32.603V220.666z M247.586,220.666h-31.551
	v-24.591h31.551V220.666z M200.26,220.666h-32.603v-24.591h32.603V220.666z M151.882,220.666h-31.551v-24.591h31.551V220.666z
	 M104.556,220.666H71.8v-24.591h32.755V220.666z M71.8,236.441h32.755v24.189H71.8V236.441z M71.8,276.406h32.755v24.189H71.8
	V276.406z M71.8,316.37h32.755v24.002H71.8V316.37z M120.331,316.37h31.551v24.002h-31.551V316.37z M167.657,316.37h32.603v24.002
	h-32.603V316.37z M216.035,316.37h31.551v24.002h-31.551V316.37z M263.362,316.37h32.603v24.002h-32.603L263.362,316.37
	L263.362,316.37z M311.74,316.37h32.603v24.002H311.74V316.37z M471.572,420.408c0.27-2.67,0.41-5.378,0.41-8.119
	c0-21.864-8.831-41.698-23.106-56.142h7.099V180.3H56.025v175.848h279.223c-14.275,14.444-23.106,34.278-23.106,56.142
	c0,2.741,0.14,5.449,0.41,8.119H15.775V116.548h40.402v-15.775H15.775V52.01h40.402v16.159h15.775V52.01h15.775v16.159h15.775V52.01
	h16.827v16.159h15.775V52.01h15.775v16.159h15.775V52.01h16.827v16.159h15.775V52.01h15.775v16.159h15.775V52.01h15.775v16.159
	h15.775V52.01h16.827v16.159h15.775V52.01h15.775v16.159h15.775V52.01h16.827v16.159h15.775V52.01h15.775v16.159h15.775V52.01
	h16.827v16.159h15.775V52.01h15.775v16.159h15.775V52.01h40.402v48.762h-40.402v15.775h40.402v303.861H471.572z"/>
<rect x="56.182" y="380.526" width="15.775" height="15.775"/>
<rect x="80.371" y="380.526" style="fill:#FFFFFF;" width="15.775" height="15.775"/>
<rect x="103.508" y="380.526" width="16.827" height="15.775"/>
<rect x="127.697" y="380.526" style="fill:#FFFFFF;" width="15.775" height="15.775"/>
<rect x="151.886" y="380.526" width="15.775" height="15.775"/>
</svg>