<svg width="144" height="15" viewBox="0 0 144 15" fill="none" xmlns="http://www.w3.org/2000/svg">
<path fill-rule="evenodd" clip-rule="evenodd" d="M21.3828 14.2713C21.7225 14.4675 22.0915 14.5612 22.4575 14.5612C23.2013 14.5612 23.9276 14.1746 24.3259 13.4835L30.1271 3.43307C30.7245 2.40225 30.3702 1.08445 29.3394 0.489974C28.3086 -0.107431 26.9908 0.246908 26.3963 1.27772L20.595 11.3282C19.9976 12.359 20.352 13.6768 21.3828 14.2713ZM6.05482 13.4223C6.15554 13.6108 6.28499 13.7856 6.4412 13.9394C6.66197 14.1577 6.92451 14.3221 7.20777 14.4269C7.40827 14.5016 7.61486 14.5445 7.82174 14.5572C7.86728 14.5601 7.91296 14.5615 7.95871 14.5615C8.20958 14.5615 8.46465 14.5168 8.71039 14.4245C8.97728 14.3249 9.2252 14.1724 9.437 13.9716C9.60601 13.8121 9.74518 13.6285 9.85224 13.4295L15.6223 3.43307C16.2197 2.40225 15.8654 1.08445 14.8346 0.489974C13.8038 -0.107431 12.486 0.246908 11.8915 1.27772L7.95561 8.09647L4.01994 1.27809C3.42546 0.24727 2.10766 -0.104141 1.07684 0.490335C0.0460245 1.08481 -0.30539 2.40261 0.289086 3.43343L6.05482 13.4223ZM46.254 1.79306C46.254 0.891099 45.5248 0.202911 44.6257 0.202911C43.7238 0.202911 42.9975 0.891099 42.9975 1.79306C42.9975 2.69503 43.7267 3.38321 44.6257 3.38321C45.5248 3.38321 46.254 2.6921 46.254 1.79306ZM43.3782 14.3708H45.8674V5.08464H43.3782V14.3708ZM39.87 5.08464L37.3252 10.7512L34.7775 5.08464H32.1946L36.4643 14.3708H38.1862L42.4559 5.08464H39.87ZM55.9207 12.895C55.0217 13.9668 53.5458 14.5613 52.1108 14.5613C49.3347 14.5613 47.2467 12.6461 47.2467 9.73518C47.2467 7.14936 49.0096 4.89152 51.7653 4.89152C54.3306 4.89152 56.1492 7.05565 56.1492 9.64147C56.1492 9.89039 56.1287 10.1393 56.0906 10.3502H49.6568C49.7915 11.6533 50.8428 12.5524 52.1635 12.5524C53.2178 12.5524 54.0583 11.9579 54.5005 11.4805L55.9207 12.895ZM53.6014 8.53158C53.5253 7.70869 52.7785 6.90337 51.7623 6.90337C50.7286 6.90337 49.8852 7.68819 49.771 8.53158H53.6014ZM62.7152 14.5611C63.1955 14.5611 63.9422 14.485 64.2673 14.3708L63.8895 12.2623C63.7168 12.3004 63.2365 12.3589 62.8734 12.3589C62.2584 12.3589 61.8572 12.1862 61.6083 11.8992C61.3974 11.6503 61.3008 11.3047 61.3008 10.7307V7.18729H64.3639V5.08173H61.3008V2.49591H58.8116V5.08173H56.2258V7.18729H58.8116V10.4437C58.8116 11.7645 59.0195 12.5874 59.4998 13.2199C60.1294 14.0633 61.2217 14.5611 62.7152 14.5611ZM65.8016 14.3708V5.08472H68.1941V5.83147C68.9028 5.2575 69.7843 4.89437 70.818 4.89437C72.1007 4.89437 73.2691 5.46835 74.0335 6.38788C74.6455 7.11414 74.9911 8.05417 74.9911 9.64139V14.3708H72.5019V9.45105C72.5019 8.53151 72.291 8.05417 71.9455 7.70861C71.6204 7.38355 71.1226 7.19028 70.5486 7.19028C69.4944 7.19028 68.6334 7.86089 68.2878 8.33823V14.3708H65.8016ZM83.4366 14.3708H85.8262V5.08472H83.4336V5.83147C82.7074 5.23993 81.7703 4.89437 80.716 4.89437C78.1888 4.89437 76.1594 6.99993 76.1594 9.73803C76.1594 11.0002 76.6162 12.1481 77.3454 12.9915C78.1712 13.9491 79.4714 14.5612 80.8507 14.5612C81.7908 14.5612 82.6693 14.2742 83.4366 13.6241V14.3708ZM81.0411 7.19028C81.9987 7.19028 82.8216 7.65004 83.3399 8.33823V11.1173C82.8626 11.8055 82.0368 12.2653 81.0997 12.2653C79.7028 12.2653 78.6485 11.1935 78.6485 9.73803C78.6485 8.3968 79.5856 7.19028 81.0411 7.19028ZM87.8032 14.3708V5.08472H90.1958V5.83147C90.922 5.18136 91.8035 4.89437 92.7025 4.89437C93.9676 4.89437 95.0951 5.46835 95.8242 6.34981C96.571 5.56499 97.7395 4.89437 99.1188 4.89437C100.401 4.89437 101.628 5.46835 102.375 6.38788C102.97 7.11414 103.312 8.07174 103.312 9.45105V14.3708H100.823V9.3544C100.823 8.51101 100.65 8.08931 100.363 7.76425C99.9797 7.34256 99.4438 7.19028 98.9665 7.19028C97.8947 7.19028 97.0513 7.93704 96.7262 8.4173C96.7643 8.72479 96.8023 9.06742 96.8023 9.45105V14.3708H94.3132V9.3544C94.3132 8.51101 94.1404 8.08931 93.8534 7.76425C93.4698 7.34256 92.9339 7.19028 92.4565 7.19028C91.4023 7.19028 90.6379 7.89896 90.2924 8.33823V14.3708H87.8032ZM114.361 9.73518C114.361 7.05565 112.235 4.89152 109.421 4.89152C106.604 4.89152 104.481 7.05565 104.481 9.73518C104.481 12.4176 106.607 14.5613 109.421 14.5613C112.235 14.5613 114.361 12.4147 114.361 9.73518ZM111.872 9.73811C111.872 11.135 110.876 12.2654 109.421 12.2654C107.965 12.2654 106.97 11.1379 106.97 9.73811C106.97 8.3383 107.965 7.19035 109.421 7.19035C110.876 7.19035 111.872 8.34123 111.872 9.73811ZM115.682 14.3709V0.77705H118.171V5.75542C118.898 5.18144 119.779 4.89445 120.795 4.89445C123.322 4.89445 125.352 7.00001 125.352 9.73811C125.352 11.0032 124.892 12.1512 124.166 12.9916C123.343 13.9492 122.04 14.5613 120.663 14.5613C119.726 14.5613 118.845 14.2743 118.078 13.6242V14.3709H115.682ZM118.171 11.1145C118.649 11.8027 119.474 12.2624 120.412 12.2624C121.808 12.2624 122.863 11.1906 122.863 9.73519C122.863 8.39396 121.923 7.18743 120.47 7.18743C119.513 7.18743 118.69 7.6472 118.171 8.33539V11.1145ZM129.604 1.79306C129.604 0.891099 128.875 0.202911 127.976 0.202911C127.074 0.202911 126.347 0.891099 126.347 1.79306C126.347 2.69503 127.076 3.38321 127.976 3.38321C128.875 3.38321 129.604 2.6921 129.604 1.79306ZM126.731 5.08464V14.3708H129.22V5.08464H126.731ZM133.739 0.77705H131.25V14.3709H133.739V0.77705ZM139.962 14.5613C141.396 14.5613 142.872 13.9668 143.771 12.895L142.354 11.4805C141.912 11.9579 141.071 12.5524 140.017 12.5524C138.694 12.5524 137.642 11.6533 137.508 10.3502H143.941C143.979 10.1393 144 9.89039 144 9.64147C144 7.05565 142.181 4.89152 139.616 4.89152C136.86 4.89152 135.097 7.14936 135.097 9.73518C135.097 12.6461 137.185 14.5613 139.962 14.5613ZM139.616 6.90337C140.632 6.90337 141.379 7.70869 141.455 8.53158H137.625C137.739 7.68819 138.582 6.90337 139.616 6.90337ZM15.2068 14.5612C14.8407 14.5612 14.4717 14.4675 14.132 14.2713C13.1012 13.6768 12.7469 12.359 13.3443 11.3282L19.1455 1.27772C19.74 0.246908 21.0578 -0.107431 22.0886 0.489974C23.1195 1.08445 23.4738 2.40225 22.8764 3.43307L17.0751 13.4835C16.6739 14.1746 15.9506 14.5612 15.2068 14.5612Z" fill="#FF6E00"/>
</svg>
