<svg width="20" height="20" viewBox="0 0 20 20" fill="none" xmlns="http://www.w3.org/2000/svg">
<path d="M17.75 9.03346C18.075 9.03346 18.3334 8.77513 18.3334 8.45013V7.67513C18.3334 4.25846 17.2917 3.2168 13.875 3.2168H6.12502C2.70835 3.2168 1.66669 4.25846 1.66669 7.67513V8.0668C1.66669 8.3918 1.92502 8.65013 2.25002 8.65013C3.00002 8.65013 3.60835 9.25846 3.60835 10.0085C3.60835 10.7585 3.00002 11.3585 2.25002 11.3585C1.92502 11.3585 1.66669 11.6168 1.66669 11.9418V12.3335C1.66669 15.7501 2.70835 16.7918 6.12502 16.7918H13.875C17.2917 16.7918 18.3334 15.7501 18.3334 12.3335C18.3334 12.0085 18.075 11.7501 17.75 11.7501C17 11.7501 16.3917 11.1418 16.3917 10.3918C16.3917 9.6418 17 9.03346 17.75 9.03346ZM7.50002 7.40013C7.95835 7.40013 8.33335 7.77513 8.33335 8.23346C8.33335 8.6918 7.96669 9.0668 7.50002 9.0668C7.04169 9.0668 6.66669 8.6918 6.66669 8.23346C6.66669 7.77513 7.03335 7.40013 7.50002 7.40013ZM12.5 13.2335C12.0334 13.2335 11.6584 12.8585 11.6584 12.4001C11.6584 11.9418 12.0334 11.5668 12.4917 11.5668C12.95 11.5668 13.325 11.9418 13.325 12.4001C13.325 12.8585 12.9667 13.2335 12.5 13.2335ZM13.25 7.90013L7.64169 13.5085C7.51669 13.6335 7.35835 13.6918 7.20002 13.6918C7.04169 13.6918 6.88335 13.6335 6.75835 13.5085C6.51669 13.2668 6.51669 12.8668 6.75835 12.6251L12.3667 7.0168C12.6084 6.77513 13.0084 6.77513 13.25 7.0168C13.4917 7.25846 13.4917 7.65846 13.25 7.90013Z" fill="#E54959"/>
</svg>
